<svg width="1081" height="1121" viewBox="0 0 1081 1121" fill="none" xmlns="http://www.w3.org/2000/svg" style="">
<path d="M586.779 650.5C1092.5 416.5 833.039 -409.433 1075 252.5C1145 443.999 374.773 581.17 514.766 182.5C624.5 -130 768.5 874 586.779 650.5ZM586.779 650.5C289.779 778 604 755.5 514.766 826.773C425.531 898.047 141.975 992.071 684.266 1116.77C1014.76 1192.77 152.447 -160.249 51.9999 291.5C-131.5 1116.77 212.245 276.5 586.779 650.5Z" stroke="black" class="uzDpaXcF_0"></path>
<path d="M537.73 472.759C607.23 350.759 19.8106 513.711 79.2297 398.759C132.73 295.259 427.729 269.759 529.23 295.259C634.729 311.259 427.423 354.196 482.73 295.259C612.23 157.26 719.935 313.068 887.729 260.759C1011.23 222.259 936.589 142.111 857.73 268.113C833.23 307.259 408.73 822.759 529.23 857.759C649.73 892.759 540.73 1049.76 503.23 940.759C435.23 822.759 317.23 897.76 415.73 923.76C514.23 949.76 688.581 490.187 521.73 398.759C299.73 277.113 468.23 594.759 537.73 472.759Z" stroke="black" class="uzDpaXcF_1"></path>
<style data-made-with="vivus-instant">.uzDpaXcF_0{stroke-dasharray:5897 5899;stroke-dashoffset:5898;animation:uzDpaXcF_draw_0 5000ms linear 0ms infinite,uzDpaXcF_fade 5000ms linear 0ms infinite;}.uzDpaXcF_1{stroke-dasharray:3890 3892;stroke-dashoffset:3891;animation:uzDpaXcF_draw_1 5000ms linear 0ms infinite,uzDpaXcF_fade 5000ms linear 0ms infinite;}@keyframes uzDpaXcF_draw{100%{stroke-dashoffset:0;}}@keyframes uzDpaXcF_fade{0%{stroke-opacity:1;}92%{stroke-opacity:1;}100%{stroke-opacity:0;}}@keyframes uzDpaXcF_draw_0{16%{stroke-dashoffset: 5898}56.00000000000001%{ stroke-dashoffset: 0;}100%{ stroke-dashoffset: 0;}}@keyframes uzDpaXcF_draw_1{36%{stroke-dashoffset: 3891}76%{ stroke-dashoffset: 0;}100%{ stroke-dashoffset: 0;}}</style></svg>