<svg width="345" height="46" viewBox="0 0 345 46" fill="none" xmlns="http://www.w3.org/2000/svg">
<path d="M117.71 26.7327C116.497 26.7327 115.521 25.7561 115.521 24.5684C115.521 23.3543 116.497 22.3778 117.71 22.3778C118.905 22.3778 119.872 23.3543 119.872 24.5684C119.872 25.7649 118.896 26.7327 117.71 26.7327ZM144.297 22.3778C144.297 34.4307 134.541 44.1962 122.5 44.1962C110.459 44.1962 100.703 34.4307 100.703 22.3778C100.703 10.3248 110.459 0.559326 122.5 0.559326C134.541 0.559326 144.297 10.3248 144.297 22.3778ZM132.669 18.7531C131.843 18.7531 131.113 19.0962 130.577 19.6329C128.608 18.2692 125.954 17.3894 123.01 17.2927L124.539 10.404L129.408 11.5037C129.408 12.7002 130.384 13.668 131.57 13.668C132.783 13.668 133.759 12.6738 133.759 11.4774C133.759 10.2809 132.783 9.28671 131.57 9.28671C130.718 9.28671 129.988 9.79698 129.628 10.5008L124.249 9.3043C123.985 9.23392 123.713 9.42747 123.643 9.6914L121.964 17.2927C119.046 17.4158 116.418 18.2868 114.449 19.6505C113.913 19.0874 113.157 18.7531 112.331 18.7531C109.264 18.7531 108.262 22.8792 111.065 24.2781C110.969 24.718 110.916 25.1755 110.916 25.6417C110.916 30.2694 116.119 34.0172 122.518 34.0172C128.942 34.0172 134.146 30.2694 134.146 25.6417C134.146 25.1755 134.093 24.6916 133.979 24.2517C136.729 22.8441 135.719 18.7531 132.669 18.7531ZM126.613 28.9761C125.014 30.5773 119.925 30.5509 118.387 28.9761C118.193 28.7825 117.851 28.7825 117.657 28.9761C117.438 29.196 117.438 29.5392 117.657 29.7327C119.661 31.7386 125.33 31.7386 127.343 29.7327C127.562 29.5392 127.562 29.196 127.343 28.9761C127.149 28.7825 126.807 28.7825 126.613 28.9761ZM127.29 22.3778C126.095 22.3778 125.128 23.3543 125.128 24.5684C125.128 25.7649 126.104 26.7327 127.29 26.7327C128.503 26.7327 129.479 25.7561 129.479 24.5684C129.479 23.3543 128.512 22.3778 127.29 22.3778Z" fill="#1E1E1E"/>
<path d="M249 23.0122C249 10.7729 239.153 0.856445 227 0.856445C214.847 0.856445 205 10.7729 205 23.0122C205 34.0704 213.045 43.2365 223.562 44.9V29.4168H217.974V23.0122H223.562V18.1308C223.562 12.5785 226.845 9.51149 231.872 9.51149C234.28 9.51149 236.797 9.94388 236.797 9.94388V15.3935H234.022C231.29 15.3935 230.438 17.1016 230.438 18.8535V23.0122H236.539L235.563 29.4168H230.438V44.9C240.955 43.2365 249 34.0704 249 23.0122Z" fill="#1E1E1E"/>
<path d="M37.1879 4.10849L0.976937 25.0198C-0.437126 25.8331 -0.257438 27.8038 1.14881 28.3981L9.4535 31.886L31.8988 12.0851C32.3285 11.7019 32.9379 12.2885 32.5707 12.7342L13.7504 35.6866V41.9819C13.7504 43.8275 15.9769 44.5548 17.0707 43.2175L22.0316 37.1725L31.766 41.2546C32.8754 41.7238 34.141 41.0278 34.3441 39.8313L39.9691 6.0479C40.2348 4.46822 38.5395 3.32646 37.1879 4.10849Z" fill="#1E1E1E"/>
<path d="M315.051 37.3212C315.051 37.5034 314.843 37.6491 314.58 37.6491C314.28 37.6764 314.072 37.5307 314.072 37.3212C314.072 37.1391 314.28 36.9934 314.543 36.9934C314.816 36.9661 315.051 37.1118 315.051 37.3212ZM312.23 36.9114C312.166 37.0936 312.348 37.303 312.62 37.3577C312.856 37.4487 313.128 37.3577 313.182 37.1755C313.237 36.9934 313.065 36.7839 312.792 36.702C312.556 36.6382 312.293 36.7293 312.23 36.9114ZM316.24 36.7566C315.977 36.8203 315.795 36.9934 315.823 37.2029C315.85 37.385 316.086 37.5034 316.358 37.4396C316.621 37.3759 316.802 37.2029 316.775 37.0207C316.748 36.8477 316.503 36.7293 316.24 36.7566ZM322.21 1.85742C309.626 1.85742 300 11.4474 300 24.0792C300 34.1792 306.333 42.8221 315.378 45.8639C316.539 46.0734 316.948 45.3539 316.948 44.7619C316.948 44.1973 316.92 41.0826 316.92 39.17C316.92 39.17 310.57 40.5361 309.236 36.4561C309.236 36.4561 308.202 33.8058 306.714 33.1228C306.714 33.1228 304.636 31.6929 306.859 31.7203C306.859 31.7203 309.118 31.9024 310.361 34.0699C312.348 37.5854 315.677 36.5744 316.975 35.9734C317.183 34.5162 317.773 33.5053 318.426 32.9042C313.355 32.3396 308.238 31.6019 308.238 22.8406C308.238 20.3361 308.927 19.0793 310.379 17.4764C310.143 16.8845 309.372 14.4437 310.615 11.2926C312.511 10.7006 316.875 13.7516 316.875 13.7516C318.69 13.2415 320.64 12.9774 322.573 12.9774C324.505 12.9774 326.456 13.2415 328.27 13.7516C328.27 13.7516 332.634 10.6915 334.53 11.2926C335.773 14.4528 335.002 16.8845 334.766 17.4764C336.218 19.0884 337.107 20.3452 337.107 22.8406C337.107 31.6292 331.763 32.3304 326.692 32.9042C327.526 33.6237 328.234 34.9898 328.234 37.13C328.234 40.1992 328.207 43.9969 328.207 44.7437C328.207 45.3357 328.624 46.0551 329.776 45.8457C338.849 42.8221 345 34.1792 345 24.0792C345 11.4474 334.793 1.85742 322.21 1.85742ZM308.819 33.2685C308.701 33.3596 308.728 33.569 308.882 33.7421C309.027 33.8878 309.236 33.9515 309.354 33.8331C309.472 33.7421 309.445 33.5326 309.29 33.3596C309.145 33.2139 308.936 33.1501 308.819 33.2685ZM307.839 32.5308C307.775 32.6492 307.866 32.7949 308.047 32.886C308.193 32.9771 308.374 32.9497 308.438 32.8222C308.501 32.7038 308.41 32.5581 308.229 32.4671C308.047 32.4124 307.902 32.4397 307.839 32.5308ZM310.778 35.773C310.633 35.8914 310.688 36.1646 310.896 36.3377C311.105 36.5471 311.368 36.5744 311.486 36.4287C311.604 36.3103 311.549 36.0371 311.368 35.8641C311.168 35.6546 310.896 35.6273 310.778 35.773ZM309.744 34.4342C309.599 34.5253 309.599 34.7621 309.744 34.9716C309.889 35.181 310.134 35.2721 310.252 35.181C310.397 35.0626 310.397 34.8258 310.252 34.6164C310.125 34.4069 309.889 34.3158 309.744 34.4342Z" fill="#1E1E1E"/>
</svg>
